<svg width="63" height="60" viewBox="0 0 63 60" fill="none" xmlns="http://www.w3.org/2000/svg">
<path d="M13.4167 6.64062V0H1.4375C0.640885 0 0 0.522461 0 1.17188V23.8281C0 24.4775 0.640885 25 1.4375 25H21.5625C22.3591 25 23 24.4775 23 23.8281V7.8125H14.8542C14.0635 7.8125 13.4167 7.28516 13.4167 6.64062ZM17.25 18.1641C17.25 18.4863 16.9266 18.75 16.5312 18.75H6.46875C6.07344 18.75 5.75 18.4863 5.75 18.1641V17.7734C5.75 17.4512 6.07344 17.1875 6.46875 17.1875H16.5312C16.9266 17.1875 17.25 17.4512 17.25 17.7734V18.1641ZM17.25 15.0391C17.25 15.3613 16.9266 15.625 16.5312 15.625H6.46875C6.07344 15.625 5.75 15.3613 5.75 15.0391V14.6484C5.75 14.3262 6.07344 14.0625 6.46875 14.0625H16.5312C16.9266 14.0625 17.25 14.3262 17.25 14.6484V15.0391ZM17.25 11.5234V11.9141C17.25 12.2363 16.9266 12.5 16.5312 12.5H6.46875C6.07344 12.5 5.75 12.2363 5.75 11.9141V11.5234C5.75 11.2012 6.07344 10.9375 6.46875 10.9375H16.5312C16.9266 10.9375 17.25 11.2012 17.25 11.5234ZM23 5.95215V6.25H15.3333V0H15.6987C16.082 0 16.4474 0.12207 16.7169 0.341797L22.5807 5.12695C22.8503 5.34668 23 5.64453 23 5.95215Z" fill="#F4F5F5"/>
<path d="M62.1445 5.80742L48.6333 0.228026C47.897 -0.0760086 47.1026 -0.0760086 46.3669 0.228026L32.8552 5.80742C31.7149 6.27812 31.7149 8.3048 32.8552 8.7755L35.2107 9.74815C34.6939 10.6069 34.3761 11.6544 34.3446 12.8015C33.8782 13.1609 33.5498 13.8093 33.5498 14.5834C33.5498 15.2852 33.8249 15.8757 34.2211 16.2533L32.9845 23.7324C32.877 24.3828 33.2451 25 33.7406 25H36.4584C36.9544 25 37.3226 24.3828 37.215 23.7324L35.9784 16.2533C36.3746 15.8757 36.6498 15.2852 36.6498 14.5834C36.6498 13.8302 36.3364 13.1999 35.8912 12.8341C35.9281 11.8562 36.3001 10.9916 36.8934 10.4435L46.3664 14.3555C46.8052 14.5365 47.6471 14.7624 48.6328 14.3555L62.1445 8.77615C63.2852 8.3048 63.2852 6.27877 62.1445 5.80742V5.80742ZM49.0881 16.3471C47.7062 16.9174 46.5286 16.6023 45.9111 16.3471L38.8866 13.4467L38.1998 20.8334C38.1998 23.1348 42.3635 25 47.4998 25C52.6362 25 56.7999 23.1348 56.7999 20.8334L56.113 13.446L49.0881 16.3471V16.3471Z" fill="#F4F5F5"/>
<path d="M11.5 47.5C15.1297 47.5 18.0714 44.7021 18.0714 41.25C18.0714 37.7979 15.1297 35 11.5 35C7.87031 35 4.92857 37.7979 4.92857 41.25C4.92857 44.7021 7.87031 47.5 11.5 47.5ZM16.4183 49.0918L13.9643 58.4375L12.3214 51.7969L13.9643 49.0625H9.03571L10.6786 51.7969L9.03571 58.4375L6.5817 49.0918C2.92121 49.2578 0 52.1045 0 55.625V57.6562C0 58.9502 1.10379 60 2.46429 60H20.5357C21.8962 60 23 58.9502 23 57.6562V55.625C23 52.1045 20.0788 49.2578 16.4183 49.0918V49.0918Z" fill="#F4F5F5"/>
<path d="M35 45.9375V59.2188C35 59.6504 35.3132 60 35.7 60H39.2V44.375H36.4C35.6269 44.375 35 45.0747 35 45.9375ZM50.75 43.5938H49.7V41.6406C49.7 41.4248 49.5434 41.25 49.35 41.25H48.65C48.4566 41.25 48.3 41.4248 48.3 41.6406V44.7656C48.3 44.9814 48.4566 45.1563 48.65 45.1563H50.75C50.9434 45.1563 51.1 44.9814 51.1 44.7656V43.9844C51.1 43.7686 50.9434 43.5938 50.75 43.5938ZM56.7766 40.4707L49.7766 35.2622C49.5465 35.0912 49.2764 35 49 35C48.7236 35 48.4534 35.0912 48.2234 35.2622L41.2234 40.4707C41.0317 40.6134 40.8745 40.8066 40.7657 41.0334C40.657 41.2601 40.6 41.5133 40.6 41.7705V60H46.2V52.9688C46.2 52.5371 46.5132 52.1875 46.9 52.1875H51.1C51.4868 52.1875 51.8 52.5371 51.8 52.9688V60H57.4V41.771C57.4 41.2485 57.1659 40.7603 56.7766 40.4707ZM49 47.5C47.0671 47.5 45.5 45.751 45.5 43.5938C45.5 41.4365 47.0671 39.6875 49 39.6875C50.9329 39.6875 52.5 41.4365 52.5 43.5938C52.5 45.751 50.9329 47.5 49 47.5ZM61.6 44.375H58.8V60H62.3C62.6867 60 63 59.6504 63 59.2188V45.9375C63 45.0747 62.3731 44.375 61.6 44.375Z" fill="#F4F5F5"/>
</svg>
